<?xml version="1.0" encoding="utf-8"?>
<!-- Generator: Adobe Illustrator 25.0.0, SVG Export Plug-In . SVG Version: 6.00 Build 0)  -->
<svg version="1.1" id="Ebene_1" xmlns="http://www.w3.org/2000/svg" xmlns:xlink="http://www.w3.org/1999/xlink" x="0px" y="0px"
	 viewBox="0 0 448.1 425.7" style="enable-background:new 0 0 448.1 425.7;" xml:space="preserve">
<style type="text/css">
	.st0{fill:#E62838;}
</style>
<g>
	<g>
		<g>
			<path class="st0" d="M147.1,238.5c-0.4,0.6-0.8,1.1-1.1,1.6c-23,29.7-46,59.3-68.8,89.1c-19.3,25.2-38.4,50.7-57.6,76.1
				c-0.4,0.6-1.1,1.7-0.8,2.2c0.8,1,1.2,1.2,2.4,1.1c3-0.6,2.8-0.4,5.2-2c34.5-26.4,69.1-52.7,103.4-79.4
				c16.3-12.7,32.1-26,47.8-39.3c6.6-5.6,12.5-12,18.7-18c0.6-0.5,1.7-1.1,2.4-0.9c6.9,2.4,13.1,6,17.6,12.1
				c1.3,1.8,1.6,3.7,0.5,5.5c-1.3,2.1-2.5,4.3-4.3,5.9c-5.9,5.4-11.7,10.8-18,15.6c-19.3,14.6-39.9,27.2-60.7,39.6
				c-4,2.3-7.9,4.7-11.8,7c-0.6,0.3-0.8,1-0.7,1.6c0.4,2,0.6,2.1,2.1,1.9c9-1.1,18-1.8,26.9-3.4c16.8-3,32.9-8.4,48.8-14.7
				c9.8-3.8,19.7-7.6,29-12.6c13.6-7.2,24.8-17.4,33.1-30.6c6.5-10.4,6.5-20.9,0.4-31.5c-4.6-8-10.2-15.2-16.8-21.5
				c-12-11.4-24.3-22.5-36.8-33.3c-10.8-9.3-22.6-17.3-35.6-23.4c-8.7-4.1-17.5-7.2-27.3-5.9c-7.6,1-13.8,4-16.9,11.4
				c-3,7.3-2.8,15-0.2,22.4c2.3,6.6,6.8,11.9,11.8,16.7C142,234.1,144.5,236.2,147.1,238.5z M106.2,144.6c0,1.1,0.7,1,1.2,0.4
				c0.4-0.8,0.8-1.6,1-2.4c3.1-12.5,6.1-25,9.3-37.4c2.8-11.1,6.2-22,12.4-31.8c4.6-7.4,10.7-13.1,18.9-16.5
				c8.1-3.4,15.5-2.4,22.1,3.2c3,2.5,5.8,5.2,8.4,8c5.5,5.9,10.7,12.2,16.3,18c6,6.2,13.1,10.2,22.3,9.4c6.7-0.6,11.1-3.9,12.9-10.5
				c1.8-6.9,1.2-13.8-1-20.5c-3.8-11.4-11.2-20.3-20.3-27.8c-9.5-7.8-20.4-13.3-31.9-17.5c-9.2-3.4-18.6-5.2-28.6-3.1
				c-6.2,1.3-15.1,6.2-19.9,10.4c-5.8,5.3-10.8,11.4-14.8,18.3C106.3,59.4,103,75.4,102.5,92c-0.3,10.3,0.2,20.7,0.8,31
				C103.8,130.2,105.2,137.4,106.2,144.6z M410.1,98.8c-0.2-1-0.7-1.9-1.4-1.9c-0.9,0-1.9,0.9-2.3,1.6c-0.8,1.6-1.3,3.4-1.9,5.1
				c-2.7,7.6-5,15.5-9.4,22.3c-7.1,11-14.9,21.5-24.6,30.4c-6.5,6.1-13.7,11.2-21.8,14.9c-6.8,3.1-12.5,1.8-16.8-4.2
				c-2.4-3.4-4.4-7.4-5.8-11.4c-2-5.5-3.3-11.4-5.1-17c-2.2-7-4.7-13.9-9.9-19.3c-7.7-7.9-16.1-9.6-23.7-1.9
				c-1.2,1.2-2.9,3.5-3.7,5.1c-2.8,5.2-3.9,10.9-3.5,16.8c0.5,8.2,2.3,16.2,4.9,23.9c5.2,15.5,13.5,28.9,26.7,39
				c6.6,5.1,13.9,8.3,22.3,8.3c9.6-0.1,18.4-3.1,26.1-8.7c18.7-13.5,33.1-30.7,43.3-51.3c2.7-5.5,5-11.3,6.5-17.1
				c2.3-8.8,2.6-18,1.2-26.9L410.1,98.8z"/>
			<circle class="st0" cx="292.3" cy="65.4" r="38"/>
		</g>
	</g>
</g>
</svg>
